<svg width="18" height="18" viewBox="0 0 18 18" fill="none" xmlns="http://www.w3.org/2000/svg">
<path fill-rule="evenodd" clip-rule="evenodd" d="M4.65898 10.9958L3.12402 3.75H15.7497C16.4006 3.75 16.8776 4.36098 16.7196 4.99296L15.3717 10.3848C15.1667 11.2038 14.4707 11.8058 13.6307 11.8898L6.81492 12.5717C5.79895 12.6727 4.86997 11.9938 4.65898 10.9958Z" stroke="#E16364" stroke-width="1.5" stroke-linecap="round" stroke-linejoin="round"/>
<path d="M3.12393 3.74991L2.47395 0.75H0.75" stroke="#E16364" stroke-width="1.5" stroke-linecap="round" stroke-linejoin="round"/>
<path d="M14.3586 16.0166C14.1566 16.0166 13.9926 16.1806 13.9946 16.3826C13.9946 16.5846 14.1586 16.7486 14.3606 16.7486C14.5626 16.7486 14.7266 16.5846 14.7266 16.3826C14.7256 16.1806 14.5616 16.0166 14.3586 16.0166" stroke="#E16364" stroke-width="1.5" stroke-linecap="round" stroke-linejoin="round"/>
<path d="M5.94723 16.0165C5.74523 16.0165 5.58124 16.1805 5.58324 16.3825C5.58124 16.5855 5.74623 16.7495 5.94823 16.7495C6.15022 16.7495 6.31421 16.5855 6.31421 16.3835C6.31421 16.1805 6.15022 16.0165 5.94723 16.0165" stroke="#E16364" stroke-width="1.5" stroke-linecap="round" stroke-linejoin="round"/>
</svg>
